<?xml version="1.0" encoding="UTF-8" standalone="no"?><!DOCTYPE svg PUBLIC "-//W3C//DTD SVG 1.1//EN" "http://www.w3.org/Graphics/SVG/1.1/DTD/svg11.dtd"><svg width="100%" height="100%" viewBox="0 0 2000 2000" version="1.1" xmlns="http://www.w3.org/2000/svg" xmlns:xlink="http://www.w3.org/1999/xlink" xml:space="preserve" xmlns:serif="http://www.serif.com/" style="fill-rule:evenodd;clip-rule:evenodd;stroke-linejoin:round;stroke-miterlimit:2;"><path d="M1000,11.397l948.701,494.301l0,988.604l-948.701,494.301l-948.701,-494.301l0,-988.604l948.701,-494.301Z"/><g><path d="M883.538,641.568c0,0 -38.099,-168.479 -79.725,-220.404c-26.118,-32.579 -73.773,-37.825 -106.352,-11.707c-32.58,26.118 -37.825,73.773 -11.707,106.352c41.626,51.925 197.784,125.759 197.784,125.759Z" style="fill:#e6c7bf;"/><path d="M1018.65,649.798c0,0 65.503,-159.832 61.219,-226.244c-2.688,-41.669 -38.7,-73.317 -80.37,-70.629c-41.669,2.688 -73.317,38.701 -70.629,80.37c4.284,66.412 89.78,216.503 89.78,216.503Z" style="fill:#e6c7bf;"/><path d="M1156.31,636.352c0,0 136.948,-105.272 166.616,-164.843c18.615,-37.377 3.382,-82.835 -33.995,-101.45c-37.377,-18.615 -82.835,-3.382 -101.45,33.995c-29.668,59.571 -31.171,232.298 -31.171,232.298Z" style="fill:#e6c7bf;"/></g><g><g transform="matrix(1.36263,0,0,1.36263,-388.605,-479.13)"><clipPath id="_clip1"><path d="M489.451,883.542l274.976,0c54.206,0 97.992,7.354 131.36,22.063c33.367,14.709 60.947,35.819 82.738,63.33c21.791,27.512 37.589,59.517 47.395,96.017c9.806,36.5 14.709,75.18 14.709,116.038c0,64.011 -7.286,113.654 -21.859,148.928c-14.573,35.275 -34.798,64.829 -60.675,88.663c-25.876,23.834 -53.66,39.701 -83.35,47.6c-40.586,10.895 -77.359,16.343 -110.318,16.343l-274.976,0l0,-598.982Zm185.088,135.649l0,327.275l45.353,0c38.679,0 66.19,-4.29 82.533,-12.87c16.344,-8.581 29.146,-23.562 38.407,-44.944c9.261,-21.383 13.892,-56.044 13.892,-103.985c0,-63.466 -10.351,-106.912 -31.052,-130.338c-20.702,-23.425 -55.023,-35.138 -102.963,-35.138l-46.17,0Z" clip-rule="nonzero"/></clipPath><g clip-path="url(#_clip1)"><text x="425.712px" y="1482.52px" style="font-family:'Arial-Black', 'Arial Black', sans-serif;font-weight:900;font-size:836.778px;fill:#fa55a6;">D</text><g transform="matrix(0.507062,-0.30552,0.293464,0.487053,-29.1437,1034.92)"><path d="M1787.07,1215.48c0,-68.745 -53.61,-124.556 -119.642,-124.556l-1309.69,0c-66.032,0 -119.641,55.811 -119.641,124.556l0,249.113c0,68.744 53.609,124.556 119.641,124.556l1309.69,0c66.032,0 119.642,-55.812 119.642,-124.556l0,-249.113Z" style="fill:#fa6b55;"/></g></g></g><g transform="matrix(-1.36263,0,0,1.36263,2366.69,-465.746)"><clipPath id="_clip2"><path d="M486.182,883.542l307.663,0c67.008,0 117.195,15.934 150.563,47.804c33.368,31.869 50.051,77.222 50.051,136.058c0,60.47 -18.182,107.73 -54.545,141.778c-36.364,34.049 -91.864,51.073 -166.498,51.073l-101.329,0l0,222.269l-185.905,0l0,-598.982Zm185.905,255.364l45.353,0c35.683,0 60.743,-6.197 75.179,-18.591c14.437,-12.393 21.655,-28.26 21.655,-47.6c0,-18.794 -6.265,-34.729 -18.795,-47.804c-12.529,-13.074 -36.091,-19.612 -70.684,-19.612l-52.708,0l0,133.607Z" clip-rule="nonzero"/></clipPath><g clip-path="url(#_clip2)"><text x="425.712px" y="1482.52px" style="font-family:'Arial-Black', 'Arial Black', sans-serif;font-weight:900;font-size:836.778px;fill:#e9ba00;">P</text><g transform="matrix(-0.4453,0.338863,0.312902,0.411185,806.607,437.352)"><path d="M1787.07,1215.48c0,-68.745 -51.536,-124.556 -115.014,-124.556l-1318.95,0c-63.478,0 -115.014,55.811 -115.014,124.556l0,249.113c0,68.744 51.536,124.556 115.014,124.556l1318.95,0c63.478,0 115.014,-55.812 115.014,-124.556l0,-249.113Z" style="fill:#fa6b55;"/></g></g></g></g></svg>