<?xml version="1.0" encoding="UTF-8" standalone="no"?>
<!DOCTYPE svg PUBLIC "-//W3C//DTD SVG 1.1//EN" "http://www.w3.org/Graphics/SVG/1.1/DTD/svg11.dtd">
<svg width="100%" height="100%" viewBox="0 0 2000 2000" version="1.1" xmlns="http://www.w3.org/2000/svg" xmlns:xlink="http://www.w3.org/1999/xlink" xml:space="preserve" xmlns:serif="http://www.serif.com/" style="fill-rule:evenodd;clip-rule:evenodd;stroke-linejoin:round;stroke-miterlimit:2;">
    <g transform="matrix(1.63146,0,0,1.53355,-680.024,-592.983)">
        <path d="M1029.77,394.105L1611.27,716.43L1611.27,1361.08L1029.77,1683.4L448.263,1361.08L448.263,716.43L1029.77,394.105Z"/>
    </g>
    <g transform="matrix(1,0,0,1,9.52686,-151.432)">
        <g transform="matrix(-0.780231,0.625491,-0.625491,-0.780231,1669.9,794.054)">
            <path d="M620.32,498.645C620.32,498.645 544.664,653.928 544.664,720.478C544.664,762.234 578.565,796.135 620.32,796.135C662.076,796.135 695.977,762.234 695.977,720.478C695.977,653.928 620.32,498.645 620.32,498.645Z" style="fill:rgb(230,199,191);"/>
        </g>
        <g transform="matrix(-0.997926,0.0643745,-0.0643745,-0.997926,1660.25,1258.91)">
            <path d="M620.32,498.645C620.32,498.645 544.664,653.928 544.664,720.478C544.664,762.234 578.565,796.135 620.32,796.135C662.076,796.135 695.977,762.234 695.977,720.478C695.977,653.928 620.32,498.645 620.32,498.645Z" style="fill:rgb(230,199,191);"/>
        </g>
        <g transform="matrix(-0.895132,-0.445801,0.445801,-0.895132,1479.75,1510.68)">
            <path d="M620.32,498.645C620.32,498.645 544.664,653.928 544.664,720.478C544.664,762.234 578.565,796.135 620.32,796.135C662.076,796.135 695.977,762.234 695.977,720.478C695.977,653.928 620.32,498.645 620.32,498.645Z" style="fill:rgb(230,199,191);"/>
        </g>
    </g>
    <g>
        <g transform="matrix(1.36263,0,0,1.36263,-388.605,-479.13)">
            <clipPath id="_clip1">
                <path d="M489.451,883.542L764.427,883.542C818.633,883.542 862.419,890.896 895.787,905.605C929.154,920.314 956.734,941.424 978.525,968.935C1000.32,996.447 1016.11,1028.45 1025.92,1064.95C1035.73,1101.45 1040.63,1140.13 1040.63,1180.99C1040.63,1245 1033.34,1294.64 1018.77,1329.92C1004.2,1365.19 983.972,1394.75 958.095,1418.58C932.219,1442.41 904.435,1458.28 874.745,1466.18C834.159,1477.08 797.386,1482.52 764.427,1482.52L489.451,1482.52L489.451,883.542ZM674.539,1019.19L674.539,1346.47L719.892,1346.47C758.571,1346.47 786.082,1342.18 802.425,1333.6C818.769,1325.02 831.571,1310.03 840.832,1288.65C850.093,1267.27 854.724,1232.61 854.724,1184.67C854.724,1121.2 844.373,1077.76 823.672,1054.33C802.97,1030.9 768.649,1019.19 720.709,1019.19L674.539,1019.19Z" clip-rule="nonzero"/>
            </clipPath>
            <g clip-path="url(#_clip1)">
                <text x="425.712px" y="1482.52px" style="font-family:'Arial-Black', 'Arial Black', sans-serif;font-weight:900;font-size:836.778px;fill:rgb(250,85,166);">D</text>
                <g transform="matrix(0.497403,-0.2997,0.303867,0.504319,-37.4374,955.127)">
                    <path d="M1787.07,1215.48C1787.07,1146.74 1730.48,1090.93 1660.78,1090.93L364.381,1090.93C294.681,1090.93 238.093,1146.74 238.093,1215.48L238.093,1464.6C238.093,1533.34 294.681,1589.15 364.381,1589.15L1660.78,1589.15C1730.48,1589.15 1787.07,1533.34 1787.07,1464.6L1787.07,1215.48Z" style="fill:rgb(250,107,85);"/>
                </g>
            </g>
        </g>
        <g transform="matrix(-1.36263,0,0,1.36263,2366.69,-465.746)">
            <clipPath id="_clip2">
                <path d="M486.182,883.542L793.845,883.542C860.853,883.542 911.04,899.476 944.408,931.346C977.776,963.215 994.459,1008.57 994.459,1067.4C994.459,1127.87 976.277,1175.13 939.914,1209.18C903.55,1243.23 848.05,1260.26 773.416,1260.26L672.087,1260.26L672.087,1482.52L486.182,1482.52L486.182,883.542ZM672.087,1138.91L717.44,1138.91C753.123,1138.91 778.183,1132.71 792.619,1120.32C807.056,1107.92 814.274,1092.06 814.274,1072.71C814.274,1053.92 808.009,1037.99 795.479,1024.91C782.95,1011.84 759.388,1005.3 724.795,1005.3L672.087,1005.3L672.087,1138.91Z" clip-rule="nonzero"/>
            </clipPath>
            <g clip-path="url(#_clip2)">
                <text x="425.712px" y="1482.52px" style="font-family:'Arial-Black', 'Arial Black', sans-serif;font-weight:900;font-size:836.778px;fill:rgb(233,186,0);">P</text>
                <g transform="matrix(-0.394814,0.396537,0.366158,0.364567,687.663,405.229)">
                    <path d="M1787.07,1215.48C1787.07,1146.74 1735.53,1090.93 1672.06,1090.93L353.107,1090.93C289.629,1090.93 238.093,1146.74 238.093,1215.48L238.093,1464.6C238.093,1533.34 289.629,1589.15 353.107,1589.15L1672.06,1589.15C1735.53,1589.15 1787.07,1533.34 1787.07,1464.6L1787.07,1215.48Z" style="fill:rgb(250,107,85);"/>
                </g>
            </g>
        </g>
    </g>
</svg>
