<?xml version="1.0" encoding="UTF-8" standalone="no"?>
<!DOCTYPE svg PUBLIC "-//W3C//DTD SVG 1.1//EN" "http://www.w3.org/Graphics/SVG/1.1/DTD/svg11.dtd">
<svg width="100%" height="100%" viewBox="0 0 3840 2160" version="1.1" xmlns="http://www.w3.org/2000/svg" xmlns:xlink="http://www.w3.org/1999/xlink" xml:space="preserve" xmlns:serif="http://www.serif.com/" style="fill-rule:evenodd;clip-rule:evenodd;stroke-linejoin:round;stroke-miterlimit:2;">
    <g transform="matrix(5.06572,0,0,4.27211,64.2259,-11.7796)">
        <g>
            <g transform="matrix(1.01844,0,0,1.01834,-18.9302,4.46767)">
                <rect x="0" y="0" width="750" height="500" style="fill:white;"/>
            </g>
            <g transform="matrix(1,0,0,1,768.266,312.56)">
                <path d="M0,198.03L0,0C-19.646,1.532 -39.34,4.936 -55.95,16.093C-76.56,29.937 -83.109,52.366 -87.888,75.488C-92.654,98.555 -98.475,124.313 -121.915,135.227C-142.976,145.033 -167.976,142.191 -188.166,154.496C-204.59,164.505 -209.589,180.803 -210.059,198.03L0,198.03Z" style="fill:rgb(246,149,152);fill-rule:nonzero;"/>
            </g>
            <g transform="matrix(1,0,0,1,116.79,171.301)">
                <path d="M327.224,-181.891L-130.295,-181.891L-130.295,-7.986C-130.295,-7.986 -100.414,-24.842 -109.101,-60.245C-117.787,-95.648 -107.711,-101.976 -85.821,-114.488C-63.932,-126.998 -70.186,-152.357 -44.475,-164.04C-18.763,-175.723 0,-126.342 0,-126.342C8.509,-114.272 19.361,-103.902 32.117,-97.081C38.914,-93.447 46.156,-90.847 53.657,-89.436C62.651,-87.744 71.792,-87.484 80.905,-87.382C89.997,-87.281 99.13,-87.312 108.162,-86.05C115.93,-84.963 123.595,-82.995 131.024,-80.378C145.862,-75.151 159.72,-67.167 172.58,-57.827C185.841,-48.196 198.06,-37.045 209.612,-25.234C220.079,-14.532 232.284,0 248.202,-0.38C262.906,-0.732 271.824,-14.184 275.888,-27.693C278.305,-35.728 279.246,-44.232 279.919,-52.601C280.709,-62.413 280.864,-72.264 281.077,-82.103C281.46,-99.84 282.049,-117.703 286.991,-134.794C291.078,-148.925 298.124,-162.712 309.431,-171.809C314.724,-176.068 321.011,-178.929 327.224,-181.891Z" style="fill:rgb(255,208,199);fill-rule:nonzero;"/>
            </g>
            <g transform="matrix(1,0,0,1,444.614,296.364)">
                <path d="M0,-283.422C-14.489,-264.329 -23.075,-241.446 -27.313,-217.988C-29.595,-205.364 -30.714,-192.544 -31.002,-179.725C-31.308,-166.103 -30.297,-152.52 -30.254,-138.904C-30.182,-115.915 -34.621,-89.099 -55.992,-76.093C-66.05,-69.973 -77.812,-67.621 -89.101,-64.843C-99.405,-62.306 -109.653,-59.176 -118.527,-53.164C-126.696,-47.63 -133.582,-39.635 -135.187,-29.627C-136.952,-18.63 -132.423,-7.672 -125.064,0.396C-117.06,9.175 -105.685,14.139 -94.398,17.141C-83.823,19.954 -72.834,21.494 -61.924,22.19C-40.884,23.533 -19.608,21.265 0.76,15.868C21.155,10.464 40.766,1.886 58.548,-9.475C76.219,-20.766 92.183,-34.822 105.279,-51.218C120.708,-70.533 131.007,-93.727 148.181,-111.67C148.207,-111.697 148.233,-111.725 148.261,-111.753C153.73,-117.455 160.452,-121.807 167.833,-124.627C181.641,-129.903 204.922,-135.396 218.025,-119.562C237.482,-96.05 234.703,-25.505 300.72,-6.228C308.723,-3.891 316.376,-1.949 323.651,-0.337L323.651,-306.955L23.533,-306.955C14.643,-300.32 6.748,-292.315 0,-283.422" style="fill:rgb(230,199,191);fill-rule:nonzero;"/>
            </g>
            <g transform="matrix(1,0,0,1,398.985,339.832)">
                <path d="M0,153.616C-4.274,146.755 -8.679,139.967 -13.388,133.394C-22.248,121.027 -32.28,109.187 -44.634,100.168C-50.645,95.779 -57.212,92.136 -64.235,89.643C-72.456,86.727 -81.089,85.671 -89.786,85.814C-107.835,86.112 -125.924,90.814 -143.912,87.189C-151.768,85.607 -159.378,82.417 -165.256,76.853C-171.124,71.299 -174.815,63.977 -177.966,56.646C-181.089,49.378 -183.799,41.933 -187.693,35.023C-191.354,28.528 -195.824,22.486 -200.906,17.035C-211.209,5.983 -224.083,-2.659 -238.223,-7.986C-262.531,-17.142 -289.833,-15.235 -312.994,-4.071C-312.994,-4.071 -351.503,16.35 -373.104,45.327C-397.708,78.333 -421.791,86.97 -443.289,82.897L-443.289,170.758L9.907,170.758C6.859,164.903 3.489,159.217 0,153.616" style="fill:rgb(230,199,191);fill-rule:nonzero;"/>
            </g>
            <g transform="matrix(-0.222402,0.974955,0.974955,0.222402,246.699,490.057)">
                <path d="M-1.765,-7.127L5.429,-7.127C9.106,-7.126 9.372,-1.408 5.684,-1.408C3.286,-1.408 0.887,-1.409 -1.51,-1.408C-5.187,-1.409 -5.453,-7.127 -1.765,-7.127" style="fill:rgb(255,104,108);fill-rule:nonzero;"/>
            </g>
            <g transform="matrix(1,0,0,1,337.629,132.15)">
                <path d="M0,-2.271C0.686,-0.726 1.372,0.818 2.059,2.363C2.571,3.519 4.256,3.791 5.262,3.203C6.452,2.507 6.616,1.16 6.102,0C5.415,-1.545 4.729,-3.089 4.042,-4.634C3.529,-5.79 1.845,-6.062 0.84,-5.474C-0.352,-4.777 -0.516,-3.431 0,-2.271" style="fill:rgb(246,149,152);fill-rule:nonzero;"/>
            </g>
            <g transform="matrix(1,0,0,1,346.037,127.81)">
                <path d="M0,-3.489C0.91,-1.538 1.82,0.412 2.731,2.363C3.266,3.509 4.915,3.799 5.934,3.203C7.108,2.516 7.311,1.15 6.774,0C5.863,-1.951 4.953,-3.902 4.043,-5.852C3.508,-6.998 1.859,-7.288 0.84,-6.692C-0.335,-6.005 -0.537,-4.639 0,-3.489" style="fill:rgb(246,149,152);fill-rule:nonzero;"/>
            </g>
            <g transform="matrix(1,0,0,1,355.522,119.039)">
                <path d="M0,-5.019C0.762,-2.932 1.522,-0.844 2.283,1.244C2.717,2.432 3.874,3.234 5.163,2.879C6.309,2.564 7.233,1.193 6.799,0C6.037,-2.088 5.276,-4.176 4.516,-6.264C4.082,-7.451 2.925,-8.253 1.636,-7.899C0.49,-7.584 -0.435,-6.213 0,-5.019" style="fill:rgb(246,149,152);fill-rule:nonzero;"/>
            </g>
            <g transform="matrix(1,0,0,1,363.215,104.415)">
                <path d="M0,1.693C1.038,2.476 2.076,3.26 3.114,4.044C4.096,4.784 5.773,4.232 6.317,3.204C6.968,1.971 6.524,0.792 5.478,0.001C4.439,-0.783 3.401,-1.566 2.363,-2.35C1.382,-3.091 -0.297,-2.538 -0.84,-1.51C-1.491,-0.278 -1.047,0.902 0,1.693" style="fill:rgb(246,149,152);fill-rule:nonzero;"/>
            </g>
            <g transform="matrix(1,0,0,1,369.518,92.3175)">
                <path d="M0,4.682L4.291,4.682C7.304,4.682 7.309,0 4.291,0L0,0C-3.013,0 -3.019,4.682 0,4.682" style="fill:rgb(246,149,152);fill-rule:nonzero;"/>
            </g>
            <g transform="matrix(1,0,0,1,375.602,78.7455)">
                <path d="M0,5.295C1.301,5.035 2.602,4.775 3.901,4.515C5.142,4.267 5.854,2.792 5.537,1.635C5.182,0.342 3.901,-0.249 2.657,0C1.356,0.26 0.056,0.52 -1.244,0.78C-2.485,1.028 -3.197,2.503 -2.88,3.66C-2.524,4.953 -1.244,5.544 0,5.295" style="fill:rgb(246,149,152);fill-rule:nonzero;"/>
            </g>
            <g transform="matrix(1,0,0,1,347.184,143.723)">
                <path d="M0,-0.591C1.431,0.709 2.861,2.01 4.292,3.31C5.227,4.16 6.679,4.235 7.603,3.31C8.466,2.448 8.542,0.853 7.603,0C6.172,-1.301 4.741,-2.601 3.311,-3.902C2.375,-4.752 0.924,-4.826 0,-3.902C-0.863,-3.039 -0.939,-1.445 0,-0.591" style="fill:rgb(246,149,152);fill-rule:nonzero;"/>
            </g>
            <g transform="matrix(1,0,0,1,358.107,136.311)">
                <path d="M0,0.969L1.951,3.31C2.738,4.255 4.46,4.184 5.262,3.31C6.184,2.306 6.102,1.007 5.262,-0.001C4.611,-0.781 3.962,-1.561 3.312,-2.342C2.524,-3.286 0.803,-3.216 0,-2.342C-0.922,-1.337 -0.839,-0.038 0,0.969" style="fill:rgb(246,149,152);fill-rule:nonzero;"/>
            </g>
            <g transform="matrix(1,0,0,1,366.716,128.489)">
                <path d="M0,-0.657C0.857,1.022 2.281,2.446 3.961,3.304C5.05,3.861 6.551,3.625 7.164,2.464C7.729,1.395 7.488,-0.144 6.324,-0.739C6.032,-0.888 5.756,-1.054 5.482,-1.233C4.972,-1.565 5.786,-0.931 5.339,-1.344C5.219,-1.455 5.098,-1.563 4.981,-1.678C4.866,-1.794 4.76,-1.915 4.648,-2.035C4.354,-2.351 4.73,-1.874 4.593,-2.099C4.403,-2.407 4.208,-2.697 4.042,-3.02C3.484,-4.113 1.86,-4.518 0.84,-3.86C-0.275,-3.141 -0.598,-1.825 0,-0.657" style="fill:rgb(246,149,152);fill-rule:nonzero;"/>
            </g>
            <g transform="matrix(1,0,0,1,373.649,112.557)">
                <path d="M0,1.379C0.656,2.023 1.313,2.667 1.97,3.311C2.845,4.17 4.419,4.249 5.28,3.311C6.132,2.384 6.214,0.917 5.28,0.001L3.312,-1.932C2.436,-2.79 0.861,-2.87 0,-1.932C-0.851,-1.004 -0.934,0.463 0,1.379" style="fill:rgb(246,149,152);fill-rule:nonzero;"/>
            </g>
            <g transform="matrix(1,0,0,1,380.963,100.288)">
                <path d="M0,3.341L3.51,4.516C4.672,4.904 6.119,4.067 6.39,2.881C6.684,1.587 5.999,0.417 4.754,0.001L1.244,-1.174C0.082,-1.563 -1.365,-0.725 -1.636,0.461C-1.93,1.755 -1.245,2.924 0,3.341" style="fill:rgb(246,149,152);fill-rule:nonzero;"/>
            </g>
            <g transform="matrix(1,0,0,1,383.436,90.7047)">
                <path d="M0,1.746C0.649,2.268 1.299,2.789 1.947,3.311C2.448,3.714 2.935,3.997 3.603,3.997C4.177,3.997 4.863,3.742 5.258,3.311C6.04,2.46 6.277,0.82 5.258,0C4.609,-0.521 3.96,-1.043 3.312,-1.565C2.811,-1.967 2.324,-2.251 1.655,-2.251C1.082,-2.251 0.396,-1.995 0,-1.565C-0.781,-0.713 -1.019,0.927 0,1.746" style="fill:rgb(246,149,152);fill-rule:nonzero;"/>
            </g>
            <g transform="matrix(1,0,0,1,355.377,159.33)">
                <path d="M0,0.579C0.91,1.49 1.82,2.4 2.73,3.31C3.598,4.178 5.187,4.242 6.042,3.31C6.899,2.376 6.967,0.925 6.042,-0.001C5.131,-0.911 4.221,-1.821 3.311,-2.732C2.443,-3.599 0.855,-3.663 0,-2.732C-0.858,-1.797 -0.926,-0.346 0,0.579" style="fill:rgb(246,149,152);fill-rule:nonzero;"/>
            </g>
            <g transform="matrix(1,0,0,1,365.309,151.778)">
                <path d="M0,-2.656C0.261,-1.356 0.521,-0.055 0.78,1.245C1.028,2.486 2.504,3.198 3.66,2.881C4.953,2.526 5.544,1.245 5.296,0.001C5.035,-1.3 4.775,-2.6 4.516,-3.901C4.268,-5.141 2.792,-5.854 1.636,-5.536C0.343,-5.181 -0.248,-3.9 0,-2.656" style="fill:rgb(246,149,152);fill-rule:nonzero;"/>
            </g>
            <g transform="matrix(-0.323129,0.946355,0.946355,0.323129,377.663,140.258)">
                <path d="M3.39,-4.741C4.572,-3.374 5.752,-2.006 6.933,-0.639C8.902,1.641 5.366,4.712 3.39,2.424C2.21,1.056 1.028,-0.311 -0.152,-1.678C-2.12,-3.958 1.415,-7.028 3.39,-4.741" style="fill:rgb(246,149,152);fill-rule:nonzero;"/>
            </g>
            <g transform="matrix(1,0,0,1,380.054,132.695)">
                <path d="M0,-3.83L1.945,1.244C2.397,2.424 3.521,3.238 4.825,2.879C5.954,2.569 6.915,1.187 6.46,0C5.812,-1.692 5.163,-3.383 4.516,-5.075C4.063,-6.254 2.939,-7.068 1.636,-6.71C0.507,-6.399 -0.454,-5.017 0,-3.83" style="fill:rgb(246,149,152);fill-rule:nonzero;"/>
            </g>
            <g transform="matrix(1,0,0,1,385.053,119.227)">
                <path d="M0,0.022C0.521,0.802 1.04,1.583 1.561,2.363C2.239,3.38 3.657,3.916 4.764,3.203C5.778,2.549 6.33,1.09 5.604,0C5.083,-0.78 4.563,-1.561 4.043,-2.341C3.364,-3.358 1.946,-3.894 0.84,-3.181C-0.175,-2.527 -0.727,-1.068 0,0.022" style="fill:rgb(246,149,152);fill-rule:nonzero;"/>
            </g>
            <g transform="matrix(1,0,0,1,234.59,61.889)">
                <path d="M0,-4.68C-0.136,-3.119 -0.271,-1.559 -0.406,0.001C-0.516,1.262 0.748,2.341 1.935,2.341C3.292,2.341 4.166,1.265 4.276,0.001C4.411,-1.559 4.547,-3.119 4.682,-4.68C4.791,-5.941 3.527,-7.021 2.341,-7.021C0.983,-7.021 0.109,-5.945 0,-4.68" style="fill:rgb(253,235,237);fill-rule:nonzero;"/>
            </g>
            <g transform="matrix(1,0,0,1,247.096,60.7096)">
                <path d="M0,-5.463C0.124,-3.642 0.248,-1.821 0.372,0C0.458,1.262 1.387,2.341 2.713,2.341C3.914,2.341 5.141,1.268 5.055,0C4.93,-1.821 4.806,-3.642 4.682,-5.463C4.596,-6.725 3.667,-7.804 2.341,-7.804C1.141,-7.804 -0.087,-6.731 0,-5.463" style="fill:rgb(253,235,237);fill-rule:nonzero;"/>
            </g>
            <g transform="matrix(1,0,0,1,253.989,49.8229)">
                <path d="M0,-1.986C1.096,0.217 2.906,2.056 5.074,3.215C6.188,3.811 7.622,3.495 8.277,2.375C8.898,1.313 8.556,-0.229 7.437,-0.828C5.88,-1.661 4.84,-2.748 4.043,-4.349C3.48,-5.481 1.879,-5.797 0.84,-5.189C-0.312,-4.515 -0.564,-3.122 0,-1.986" style="fill:rgb(253,235,237);fill-rule:nonzero;"/>
            </g>
            <g transform="matrix(-0.062959,0.998016,0.998016,0.062959,265.074,33.1429)">
                <path d="M4.708,-5.014C6.103,-2.57 7.497,-0.127 8.892,2.317C10.389,4.941 6.198,7.029 4.708,4.42C3.313,1.977 1.919,-0.467 0.525,-2.911C-0.974,-5.534 3.219,-7.623 4.708,-5.014" style="fill:rgb(253,235,237);fill-rule:nonzero;"/>
            </g>
            <g transform="matrix(1,0,0,1,264.534,25.5853)">
                <path d="M0,1.693C1.819,2.476 3.64,3.259 5.459,4.043C6.619,4.542 7.969,4.387 8.662,3.202C9.239,2.215 8.989,0.502 7.822,0C6.002,-0.784 4.183,-1.567 2.363,-2.35C1.203,-2.849 -0.146,-2.694 -0.84,-1.51C-1.417,-0.523 -1.168,1.191 0,1.693" style="fill:rgb(253,235,237);fill-rule:nonzero;"/>
            </g>
            <g transform="matrix(1,0,0,1,264.545,10.4905)">
                <path d="M0,3.883C2.401,5.077 5.104,5.381 7.661,4.481C8.854,4.061 9.647,2.881 9.296,1.601C8.979,0.445 7.614,-0.456 6.416,-0.034C5.061,0.443 3.676,0.493 2.363,-0.16C-0.326,-1.498 -2.7,2.539 0,3.883" style="fill:rgb(253,235,237);fill-rule:nonzero;"/>
            </g>
            <g transform="matrix(1,0,0,1,264.798,-1.8927)">
                <path d="M0,6.733C2.096,5.994 4.19,5.254 6.286,4.515C7.478,4.094 8.273,2.916 7.921,1.635C7.604,0.481 6.239,-0.422 5.041,0C2.946,0.739 0.851,1.479 -1.244,2.218C-2.437,2.639 -3.231,3.817 -2.88,5.098C-2.563,6.253 -1.198,7.155 0,6.733" style="fill:rgb(253,235,237);fill-rule:nonzero;"/>
            </g>
            <g transform="matrix(1,0,0,1,200.313,32.1423)">
                <path d="M0,-7.155C-0.52,-4.467 -0.201,-1.971 0.915,0.521C1.432,1.676 3.11,1.95 4.118,1.361C5.306,0.666 5.477,-0.683 4.958,-1.842C4.395,-3.1 4.255,-4.564 4.515,-5.91C4.755,-7.151 4.166,-8.437 2.88,-8.79C1.733,-9.105 0.241,-8.403 0,-7.155" style="fill:rgb(253,235,237);fill-rule:nonzero;"/>
            </g>
            <g transform="matrix(1,0,0,1,209.247,24.1975)">
                <path d="M0,-4.217C0.39,-2.396 0.78,-0.575 1.17,1.245C1.436,2.482 2.882,3.201 4.05,2.881C5.329,2.529 5.951,1.241 5.685,0.001C5.295,-1.82 4.904,-3.641 4.515,-5.462C4.249,-6.698 2.804,-7.418 1.635,-7.097C0.355,-6.745 -0.266,-5.457 0,-4.217" style="fill:rgb(253,235,237);fill-rule:nonzero;"/>
            </g>
            <g transform="matrix(1,0,0,1,683.564,50.7941)">
                <path d="M0,-4.217C0.39,-2.396 0.78,-0.575 1.17,1.245C1.436,2.482 2.882,3.201 4.05,2.881C5.329,2.529 5.951,1.241 5.685,0.001C5.295,-1.82 4.904,-3.641 4.515,-5.462C4.249,-6.698 2.804,-7.418 1.635,-7.097C0.355,-6.745 -0.266,-5.457 0,-4.217" style="fill:rgb(253,235,237);fill-rule:nonzero;"/>
            </g>
            <g transform="matrix(1,0,0,1,219.679,17.186)">
                <path d="M0,-4.604C0.269,-2.655 0.537,-0.705 0.805,1.245C0.978,2.499 2.581,3.183 3.685,2.88C5.036,2.508 5.493,1.257 5.32,0L4.515,-5.849C4.342,-7.103 2.738,-7.787 1.635,-7.484C0.284,-7.113 -0.174,-5.862 0,-4.604" style="fill:rgb(253,235,237);fill-rule:nonzero;"/>
            </g>
            <g transform="matrix(1,0,0,1,230.259,10.3817)">
                <path d="M0,-6.243C0.258,-4.162 0.516,-2.08 0.773,0.001C0.929,1.255 1.738,2.341 3.114,2.341C4.259,2.341 5.611,1.264 5.455,0.001C5.197,-2.08 4.94,-4.162 4.683,-6.243C4.527,-7.497 3.718,-8.584 2.341,-8.584C1.197,-8.584 -0.156,-7.506 0,-6.243" style="fill:rgb(253,235,237);fill-rule:nonzero;"/>
            </g>
            <g transform="matrix(0,1,1,0,248.569,1.72263)">
                <path d="M-1.56,-6.243L6.243,-6.243C9.256,-6.243 9.261,-1.56 6.243,-1.56L-1.56,-1.56C-4.573,-1.56 -4.578,-6.243 -1.56,-6.243" style="fill:rgb(253,235,237);fill-rule:nonzero;"/>
            </g>
            <g transform="matrix(1,0,0,1,259.967,67.896)">
                <path d="M0,-1.877C0.391,-0.837 0.78,0.204 1.171,1.244C1.6,2.387 2.772,3.293 4.051,2.879C5.169,2.518 6.146,1.227 5.686,-0.001C5.295,-1.041 4.905,-2.081 4.515,-3.122C4.086,-4.265 2.914,-5.17 1.636,-4.757C0.518,-4.395 -0.46,-3.105 0,-1.877" style="fill:rgb(253,235,237);fill-rule:nonzero;"/>
            </g>
            <g transform="matrix(1,0,0,1,695.492,46.1511)">
                <path d="M0,-1.877C0.391,-0.837 0.78,0.204 1.171,1.244C1.6,2.387 2.772,3.293 4.051,2.879C5.169,2.518 6.146,1.227 5.686,-0.001C5.295,-1.041 4.905,-2.081 4.515,-3.122C4.086,-4.265 2.914,-5.17 1.636,-4.757C0.518,-4.395 -0.46,-3.105 0,-1.877" style="fill:rgb(253,235,237);fill-rule:nonzero;"/>
            </g>
            <g transform="matrix(1,0,0,1,269.957,58.3627)">
                <path d="M0,-3.099C0.91,-1.278 1.82,0.543 2.731,2.363C3.296,3.494 4.894,3.812 5.934,3.203C7.085,2.53 7.341,1.135 6.773,0L4.043,-5.462C3.478,-6.593 1.88,-6.911 0.84,-6.302C-0.312,-5.629 -0.567,-4.234 0,-3.099" style="fill:rgb(253,235,237);fill-rule:nonzero;"/>
            </g>
            <g transform="matrix(1,0,0,1,633.077,465.416)">
                <path d="M0,-3.099C0.91,-1.278 1.82,0.543 2.731,2.363C3.296,3.494 4.894,3.812 5.934,3.203C7.085,2.53 7.341,1.135 6.773,0L4.043,-5.462C3.478,-6.593 1.88,-6.911 0.84,-6.302C-0.312,-5.629 -0.567,-4.234 0,-3.099" style="fill:rgb(253,235,237);fill-rule:nonzero;"/>
            </g>
            <g transform="matrix(1,0,0,1,703.231,40.8912)">
                <path d="M0,-3.099C0.91,-1.278 1.82,0.543 2.731,2.363C3.296,3.494 4.894,3.812 5.934,3.203C7.085,2.53 7.341,1.135 6.773,0L4.043,-5.462C3.478,-6.593 1.88,-6.911 0.84,-6.302C-0.312,-5.629 -0.567,-4.234 0,-3.099" style="fill:rgb(253,235,237);fill-rule:nonzero;"/>
            </g>
            <g transform="matrix(1,0,0,1,276.956,47.3546)">
                <path d="M0,0.58C0.91,1.49 1.82,2.4 2.73,3.311C3.598,4.178 5.186,4.243 6.041,3.311C6.899,2.376 6.967,0.925 6.041,0C5.131,-0.91 4.221,-1.82 3.311,-2.731C2.443,-3.598 0.854,-3.663 0,-2.731C-0.858,-1.796 -0.926,-0.346 0,0.58" style="fill:rgb(253,235,237);fill-rule:nonzero;"/>
            </g>
            <g transform="matrix(1,0,0,1,714.885,31.7569)">
                <path d="M0,0.58C0.91,1.49 1.82,2.4 2.73,3.311C3.598,4.178 5.186,4.243 6.041,3.311C6.899,2.376 6.967,0.925 6.041,0C5.131,-0.91 4.221,-1.82 3.311,-2.731C2.443,-3.598 0.854,-3.663 0,-2.731C-0.858,-1.796 -0.926,-0.346 0,0.58" style="fill:rgb(253,235,237);fill-rule:nonzero;"/>
            </g>
            <g transform="matrix(1,0,0,1,279.549,31.927)">
                <path d="M0,3.344L4.292,4.514C5.512,4.847 6.837,4.1 7.172,2.88C7.508,1.658 6.761,0.334 5.537,0L1.245,-1.171C0.026,-1.503 -1.299,-0.757 -1.635,0.465C-1.971,1.686 -1.224,3.01 0,3.344" style="fill:rgb(253,235,237);fill-rule:nonzero;"/>
            </g>
            <g transform="matrix(0.893966,0.531383,-0.377929,0.893966,728.408,21.8255)">
                <path d="M0,3.344L4.292,4.514C5.512,4.847 6.837,4.1 7.172,2.88C7.508,1.658 6.761,0.334 5.537,0L1.245,-1.171C0.026,-1.503 -1.299,-0.757 -1.635,0.465C-1.971,1.686 -1.224,3.01 0,3.344" style="fill:rgb(253,235,237);fill-rule:nonzero;"/>
            </g>
            <g transform="matrix(1,0,0,1,282.122,20.1388)">
                <path d="M0,4.682L4.292,4.682C7.305,4.682 7.31,0 4.292,0L0,0C-3.013,0 -3.018,4.682 0,4.682" style="fill:rgb(253,235,237);fill-rule:nonzero;"/>
            </g>
            <g transform="matrix(1,0,0,1,283.853,6.9106)">
                <path d="M0,6.335C1.706,5.728 3.412,5.122 5.118,4.515C6.309,4.091 7.105,2.918 6.753,1.635C6.437,0.482 5.07,-0.426 3.873,0L-1.245,1.82C-2.436,2.244 -3.232,3.418 -2.88,4.7C-2.563,5.853 -1.197,6.761 0,6.335" style="fill:rgb(253,235,237);fill-rule:nonzero;"/>
            </g>
            <g transform="matrix(1,0,0,1,283.522,-3.195)">
                <path d="M0,6.467C1.821,5.816 3.642,5.166 5.462,4.515C6.652,4.09 7.45,2.919 7.097,1.635C6.78,0.484 5.413,-0.428 4.217,0L-1.244,1.952C-2.435,2.378 -3.232,3.548 -2.88,4.832C-2.563,5.983 -1.196,6.895 0,6.467" style="fill:rgb(253,235,237);fill-rule:nonzero;"/>
            </g>
            <g transform="matrix(-0.554969,0.831871,0.831871,0.554969,199.949,5.77191)">
                <path d="M2.861,-5.35C4.042,-4.078 5.221,-2.806 6.402,-1.535C8.452,0.673 4.913,3.741 2.861,1.53C1.681,0.259 0.501,-1.013 -0.68,-2.285C-2.729,-4.492 0.809,-7.56 2.861,-5.35" style="fill:rgb(253,235,237);fill-rule:nonzero;"/>
            </g>
            <g transform="matrix(-0.554969,0.831871,0.831871,0.554969,702.3,24.6224)">
                <path d="M2.861,-5.35C4.042,-4.078 5.221,-2.806 6.402,-1.535C8.452,0.673 4.913,3.741 2.861,1.53C1.681,0.259 0.501,-1.013 -0.68,-2.285C-2.729,-4.492 0.809,-7.56 2.861,-5.35" style="fill:rgb(253,235,237);fill-rule:nonzero;"/>
            </g>
            <g transform="matrix(1,0,0,1,715.294,14.2222)">
                <path d="M0,-2.657C0.26,-1.356 0.52,-0.056 0.78,1.245C1.028,2.485 2.503,3.197 3.659,2.88C4.952,2.525 5.544,1.244 5.295,0C5.034,-1.301 4.774,-2.601 4.515,-3.902C4.267,-5.142 2.791,-5.854 1.635,-5.536C0.342,-5.181 -0.249,-3.901 0,-2.657" style="fill:rgb(253,235,237);fill-rule:nonzero;"/>
            </g>
            <g transform="matrix(1,0,0,1,704.928,20.617)">
                <path d="M0,-2.657C0.26,-1.356 0.52,-0.056 0.78,1.245C1.028,2.485 2.503,3.197 3.659,2.88C4.952,2.525 5.544,1.244 5.295,0C5.034,-1.301 4.774,-2.601 4.515,-3.902C4.267,-5.142 2.791,-5.854 1.635,-5.536C0.342,-5.181 -0.249,-3.901 0,-2.657" style="fill:rgb(253,235,237);fill-rule:nonzero;"/>
            </g>
            <g transform="matrix(1,0,0,1,217.258,1.9037)">
                <path d="M0,-6.369C-0.87,-4.32 -0.916,-1.983 0.438,-0.107C1.177,0.917 2.476,1.415 3.642,0.733C4.652,0.142 5.225,-1.439 4.481,-2.47C4.421,-2.554 4.028,-3.278 4.172,-2.911C4.09,-3.119 4.027,-3.352 3.998,-3.574C4.058,-3.116 4.03,-3.827 4.032,-3.864C4.007,-3.292 4.241,-4.474 4.043,-4.006C4.536,-5.169 4.392,-6.514 3.203,-7.209C2.221,-7.784 0.497,-7.539 0,-6.369" style="fill:rgb(253,235,237);fill-rule:nonzero;"/>
            </g>
            <g transform="matrix(1,0,0,1,183.413,15.4573)">
                <path d="M0,-3.512L0.39,-0.001C0.524,1.213 1.37,2.402 2.731,2.341C3.884,2.289 5.217,1.303 5.072,-0.001C4.942,-1.171 4.812,-2.342 4.682,-3.512C4.547,-4.725 3.702,-5.914 2.341,-5.853C1.188,-5.802 -0.145,-4.816 0,-3.512" style="fill:rgb(253,235,237);fill-rule:nonzero;"/>
            </g>
            <g transform="matrix(1,0,0,1,686.886,32.0257)">
                <path d="M0,-3.512L0.39,-0.001C0.524,1.213 1.37,2.402 2.731,2.341C3.884,2.289 5.217,1.303 5.072,-0.001C4.942,-1.171 4.812,-2.342 4.682,-3.512C4.547,-4.725 3.702,-5.914 2.341,-5.853C1.188,-5.802 -0.145,-4.816 0,-3.512" style="fill:rgb(253,235,237);fill-rule:nonzero;"/>
            </g>
            <g transform="matrix(1,0,0,1,187.244,36.1236)">
                <path d="M0,-1.148C0.521,0.022 1.04,1.193 1.561,2.363C2.06,3.486 3.782,3.836 4.764,3.203C5.926,2.454 6.138,1.202 5.604,0C5.083,-1.17 4.562,-2.341 4.043,-3.511C3.544,-4.634 1.821,-4.984 0.84,-4.351C-0.322,-3.602 -0.534,-2.349 0,-1.148" style="fill:rgb(253,235,237);fill-rule:nonzero;"/>
            </g>
            <g transform="matrix(1,0,0,1,218.185,68.5211)">
                <path d="M0,-5.462C-0.134,-3.642 -0.268,-1.821 -0.4,-0.001C-0.493,1.262 0.741,2.341 1.94,2.341C3.284,2.341 4.188,1.266 4.281,-0.001C4.415,-1.821 4.549,-3.642 4.682,-5.462C4.774,-6.724 3.54,-7.803 2.341,-7.803C0.997,-7.803 0.093,-6.728 0,-5.462" style="fill:rgb(253,235,237);fill-rule:nonzero;"/>
            </g>
            <g transform="matrix(1,0,0,1,239.891,71.5433)">
                <path d="M0,1.361C0.65,2.011 1.301,2.661 1.951,3.312C2.818,4.179 4.406,4.243 5.262,3.312C6.119,2.377 6.187,0.926 5.262,0.001C4.611,-0.649 3.961,-1.3 3.311,-1.95C2.444,-2.817 0.855,-2.882 0,-1.95C-0.857,-1.015 -0.925,0.436 0,1.361" style="fill:rgb(253,235,237);fill-rule:nonzero;"/>
            </g>
            <g transform="matrix(1,0,0,1,242.895,462.411)">
                <path d="M0,-8.64C-1.531,-6.96 -2.649,-4.941 -3.076,-2.696C-3.355,-1.23 -2.668,0.463 -1.078,0.825C0.332,1.146 2.143,0.398 2.441,-1.174C2.728,-2.681 3.207,-3.672 4.047,-4.593C5.088,-5.735 5.175,-7.512 4.047,-8.64C2.99,-9.696 1.046,-9.786 0,-8.64" style="fill:rgb(255,104,108);fill-rule:nonzero;"/>
            </g>
            <g transform="matrix(1,0,0,1,250.585,469.307)">
                <path d="M0,-6.011C-0.521,-4.97 -1.04,-3.93 -1.56,-2.889C-2.228,-1.552 -1.961,0.271 -0.533,1.026C0.763,1.711 2.667,1.428 3.382,-0.001C3.901,-1.041 4.421,-2.082 4.94,-3.122C5.609,-4.46 5.342,-6.283 3.914,-7.037C2.618,-7.722 0.714,-7.441 0,-6.011" style="fill:rgb(255,104,108);fill-rule:nonzero;"/>
            </g>
            <g transform="matrix(1,0,0,1,261.565,475.302)">
                <path d="M0,-4.681L0,0.001C0,1.498 1.316,2.931 2.861,2.862C4.411,2.793 5.723,1.605 5.723,0.001L5.723,-4.681C5.723,-6.178 4.406,-7.612 2.861,-7.542C1.312,-7.473 0,-6.285 0,-4.681" style="fill:rgb(255,104,108);fill-rule:nonzero;"/>
            </g>
            <g transform="matrix(1,0,0,1,279.123,478.931)">
                <path d="M0,-1.794C0.78,-0.232 1.561,1.328 2.341,2.889C3.031,4.27 4.984,4.658 6.256,3.915C7.662,3.092 7.976,1.387 7.282,0L4.941,-4.682C4.25,-6.064 2.298,-6.452 1.026,-5.708C-0.381,-4.886 -0.693,-3.181 0,-1.794" style="fill:rgb(255,104,108);fill-rule:nonzero;"/>
            </g>
            <g transform="matrix(1,0,0,1,292.388,476.981)">
                <path d="M0,-1.405C0.781,0.026 1.562,1.456 2.342,2.887C3.059,4.202 4.983,4.734 6.256,3.913C7.59,3.053 8.051,1.406 7.282,-0.001L4.941,-4.293C4.225,-5.608 2.299,-6.139 1.027,-5.319C-0.307,-4.46 -0.767,-2.812 0,-1.405" style="fill:rgb(255,104,108);fill-rule:nonzero;"/>
            </g>
            <g transform="matrix(1,0,0,1,302.477,471.151)">
                <path d="M0,-2.177L2.745,2.888C3.48,4.246 5.356,4.677 6.659,3.915C8.031,3.112 8.425,1.363 7.687,0C6.771,-1.689 5.856,-3.376 4.941,-5.065C4.205,-6.423 2.329,-6.854 1.026,-6.091C-0.346,-5.289 -0.739,-3.54 0,-2.177" style="fill:rgb(255,104,108);fill-rule:nonzero;"/>
            </g>
            <g transform="matrix(1,0,0,1,311.998,465.96)">
                <path d="M0,-1.602C0.39,-0.561 0.78,0.479 1.17,1.52C1.694,2.917 3.127,4.024 4.689,3.518C6.057,3.076 7.251,1.499 6.688,-0.001C6.298,-1.042 5.908,-2.082 5.518,-3.123C4.994,-4.52 3.561,-5.626 1.998,-5.122C0.632,-4.679 -0.563,-3.102 0,-1.602" style="fill:rgb(255,104,108);fill-rule:nonzero;"/>
            </g>
            <g transform="matrix(1,0,0,1,334.915,469.061)">
                <path d="M0,-3.512C-0.131,-2.341 -0.261,-1.171 -0.391,0C-0.557,1.492 1.044,2.925 2.471,2.861C4.163,2.785 5.154,1.599 5.332,0C5.462,-1.171 5.592,-2.341 5.722,-3.512C5.888,-5.004 4.288,-6.437 2.86,-6.373C1.169,-6.297 0.178,-5.112 0,-3.512" style="fill:rgb(255,104,108);fill-rule:nonzero;"/>
            </g>
            <g transform="matrix(-0.222402,0.974955,0.974955,0.222402,351.835,470.073)">
                <path d="M-1.765,-7.127L5.429,-7.127C9.106,-7.126 9.372,-1.408 5.684,-1.408C3.286,-1.408 0.887,-1.409 -1.51,-1.408C-5.187,-1.409 -5.453,-7.127 -1.765,-7.127" style="fill:rgb(255,104,108);fill-rule:nonzero;"/>
            </g>
            <g transform="matrix(1,0,0,1,355.983,483.769)">
                <path d="M0,-6.789C-0.65,-5.489 -1.301,-4.188 -1.95,-2.888C-2.619,-1.551 -2.351,0.273 -0.924,1.026C0.373,1.712 2.276,1.43 2.99,0C3.641,-1.3 4.291,-2.601 4.941,-3.901C5.61,-5.238 5.342,-7.062 3.915,-7.816C2.618,-8.501 0.715,-8.219 0,-6.789" style="fill:rgb(255,104,108);fill-rule:nonzero;"/>
            </g>
            <g transform="matrix(1,0,0,1,364.479,491.499)">
                <path d="M0,-5.215L-1.582,-2.889C-2.426,-1.648 -1.858,0.338 -0.556,1.026C0.894,1.792 2.459,1.324 3.359,0C3.887,-0.776 4.414,-1.551 4.941,-2.327C5.785,-3.568 5.217,-5.554 3.914,-6.241C2.465,-7.007 0.9,-6.539 0,-5.215" style="fill:rgb(255,104,108);fill-rule:nonzero;"/>
            </g>
            <g transform="matrix(1,0,0,1,223.33,475.692)">
                <path d="M0,-3.12C0.13,-2.08 0.26,-1.04 0.391,0.001C0.488,0.788 0.645,1.44 1.229,2.024C1.725,2.521 2.539,2.894 3.252,2.862C4.643,2.8 6.312,1.592 6.113,0.001C5.982,-1.04 5.853,-2.08 5.723,-3.12C5.624,-3.908 5.469,-4.559 4.885,-5.143C4.389,-5.64 3.574,-6.014 2.861,-5.981C1.471,-5.92 -0.198,-4.711 0,-3.12" style="fill:rgb(255,104,108);fill-rule:nonzero;"/>
            </g>
            <g transform="matrix(1,0,0,1,234.734,478.42)">
                <path d="M0,-5.464C0.122,-3.643 0.244,-1.821 0.367,0C0.471,1.542 1.607,2.861 3.228,2.861C4.696,2.861 6.193,1.55 6.089,0L5.723,-5.464C5.619,-7.006 4.481,-8.325 2.861,-8.325C1.393,-8.325 -0.104,-7.014 0,-5.464" style="fill:rgb(255,104,108);fill-rule:nonzero;"/>
            </g>
            <g transform="matrix(1,0,0,1,250.345,487.784)">
                <path d="M0,-6.244C0.119,-4.163 0.238,-2.081 0.358,0C0.447,1.543 1.61,2.861 3.22,2.861C4.7,2.861 6.17,1.551 6.081,0C5.961,-2.081 5.842,-4.163 5.722,-6.244C5.634,-7.787 4.471,-9.105 2.861,-9.105C1.38,-9.105 -0.09,-7.795 0,-6.244" style="fill:rgb(255,104,108);fill-rule:nonzero;"/>
            </g>
            <g transform="matrix(1,0,0,1,265.179,491.319)">
                <path d="M0,-1.99C0.261,-0.82 0.521,0.351 0.78,1.521C1.105,2.984 2.881,3.979 4.301,3.52C5.836,3.023 6.647,1.567 6.299,0C6.039,-1.171 5.778,-2.342 5.519,-3.511C5.193,-4.974 3.418,-5.969 1.999,-5.51C0.463,-5.013 -0.348,-3.557 0,-1.99" style="fill:rgb(255,104,108);fill-rule:nonzero;"/>
            </g>
            <g transform="matrix(1,0,0,1,279.867,490.966)">
                <path d="M0,-1.207C0.264,-0.298 0.527,0.611 0.792,1.521C1.209,2.957 2.827,4 4.312,3.52C5.771,3.047 6.757,1.539 6.31,0C6.046,-0.909 5.782,-1.818 5.518,-2.728C5.101,-4.164 3.482,-5.207 1.998,-4.727C0.54,-4.255 -0.447,-2.746 0,-1.207" style="fill:rgb(255,104,108);fill-rule:nonzero;"/>
            </g>
            <g transform="matrix(1,0,0,1,292.778,490.245)">
                <path d="M0,-0.623C0.65,0.548 1.301,1.718 1.951,2.889C2.679,4.198 4.586,4.739 5.865,3.915C7.191,3.061 7.67,1.401 6.892,0C6.242,-1.17 5.592,-2.341 4.941,-3.512C4.214,-4.821 2.306,-5.362 1.026,-4.538C-0.3,-3.683 -0.778,-2.023 0,-0.623" style="fill:rgb(255,104,108);fill-rule:nonzero;"/>
            </g>
            <g transform="matrix(1,0,0,1,302.49,485.586)">
                <path d="M0,0.159C0.521,1.068 1.043,1.978 1.564,2.888C2.31,4.186 4.187,4.747 5.479,3.914C6.79,3.068 7.303,1.389 6.506,-0.001C5.984,-0.91 5.462,-1.82 4.94,-2.73C4.196,-4.028 2.317,-4.588 1.026,-3.756C-0.285,-2.91 -0.798,-1.231 0,0.159" style="fill:rgb(255,104,108);fill-rule:nonzero;"/>
            </g>
            <g transform="matrix(1,0,0,1,311.771,486.241)">
                <path d="M0,-6.24C0.269,-4.161 0.537,-2.081 0.806,-0.001C1.004,1.531 1.979,2.861 3.667,2.861C5.06,2.861 6.728,1.542 6.528,-0.001C6.26,-2.081 5.991,-4.161 5.723,-6.24C5.524,-7.772 4.549,-9.101 2.861,-9.101C1.469,-9.101 -0.199,-7.784 0,-6.24" style="fill:rgb(255,104,108);fill-rule:nonzero;"/>
            </g>
            <g transform="matrix(1,0,0,1,334.236,490.11)">
                <path d="M0,-6.984C-0.26,-5.164 -0.52,-3.342 -0.78,-1.522C-0.998,0.005 -0.404,1.551 1.219,1.997C2.561,2.367 4.519,1.538 4.738,-0.001C4.998,-1.822 5.258,-3.642 5.519,-5.463C5.736,-6.991 5.143,-8.537 3.52,-8.983C2.178,-9.351 0.22,-8.524 0,-6.984" style="fill:rgb(255,104,108);fill-rule:nonzero;"/>
            </g>
            <g transform="matrix(1,0,0,1,344.279,491.573)">
                <path d="M0,-6.4C-0.521,-5.229 -1.041,-4.058 -1.561,-2.888C-2.167,-1.524 -2.004,0.25 -0.534,1.027C0.711,1.684 2.731,1.46 3.38,0C3.9,-1.171 4.421,-2.34 4.94,-3.511C5.547,-4.876 5.383,-6.65 3.914,-7.426C2.669,-8.084 0.648,-7.86 0,-6.4" style="fill:rgb(255,104,108);fill-rule:nonzero;"/>
            </g>
            <g transform="matrix(1,0,0,1,217.088,488.295)">
                <path d="M0,0.547C0.521,1.327 1.041,2.108 1.561,2.888C2.39,4.131 4.124,4.786 5.476,3.914C6.716,3.115 7.391,1.331 6.502,0C5.982,-0.78 5.462,-1.561 4.941,-2.342C4.112,-3.585 2.379,-4.239 1.026,-3.368C-0.213,-2.568 -0.888,-0.785 0,0.547" style="fill:rgb(255,104,108);fill-rule:nonzero;"/>
            </g>
            <g transform="matrix(1,0,0,1,226.163,488.198)">
                <path d="M0,-1.991C0.391,-0.82 0.781,0.351 1.171,1.521C1.644,2.938 3.166,4.013 4.69,3.52C6.102,3.063 7.196,1.52 6.689,-0.001C6.299,-1.171 5.909,-2.342 5.519,-3.512C5.046,-4.929 3.523,-6.004 1.999,-5.511C0.588,-5.054 -0.507,-3.511 0,-1.991" style="fill:rgb(255,104,108);fill-rule:nonzero;"/>
            </g>
            <g transform="matrix(-0.829817,-0.558035,-0.558035,0.829817,33.9676,3.99619)">
                <path d="M-1.762,-5.929C-1.505,-3.81 -1.051,-1.737 -0.415,0.299C-0.145,1.163 -1.491,1.571 -1.762,0.705C-2.433,-1.446 -2.895,-3.642 -3.166,-5.878C-3.275,-6.777 -1.87,-6.823 -1.762,-5.929" style="fill:rgb(253,235,237);fill-rule:nonzero;"/>
            </g>
        </g>
    </g>
    <g transform="matrix(5.62498,0,0,5.62498,1741.47,1633.75)">
        <g transform="matrix(1,0,0,1,248.515,66.6667)">
            <path d="M0,-4.68C-0.136,-3.119 -0.271,-1.559 -0.406,0.001C-0.516,1.262 0.748,2.341 1.935,2.341C3.292,2.341 4.166,1.265 4.276,0.001C4.411,-1.559 4.547,-3.119 4.682,-4.68C4.791,-5.941 3.527,-7.021 2.341,-7.021C0.983,-7.021 0.109,-5.945 0,-4.68" style="fill:rgb(253,235,237);fill-rule:nonzero;"/>
        </g>
        <g transform="matrix(1,0,0,1,261.021,65.4873)">
            <path d="M0,-5.463C0.124,-3.642 0.248,-1.821 0.372,0C0.458,1.262 1.387,2.341 2.713,2.341C3.914,2.341 5.141,1.268 5.055,0C4.93,-1.821 4.806,-3.642 4.682,-5.463C4.596,-6.725 3.667,-7.804 2.341,-7.804C1.141,-7.804 -0.087,-6.731 0,-5.463" style="fill:rgb(253,235,237);fill-rule:nonzero;"/>
        </g>
        <g transform="matrix(1,0,0,1,270.229,71.274)">
            <path d="M0,-1.877C0.391,-0.837 0.78,0.204 1.171,1.244C1.6,2.387 2.772,3.293 4.051,2.879C5.169,2.518 6.146,1.227 5.686,-0.001C5.295,-1.041 4.905,-2.081 4.515,-3.122C4.086,-4.265 2.914,-5.17 1.636,-4.757C0.518,-4.395 -0.46,-3.105 0,-1.877" style="fill:rgb(253,235,237);fill-rule:nonzero;"/>
        </g>
        <g transform="matrix(1,0,0,1,282.202,58.3609)">
            <path d="M0,-3.099C0.91,-1.278 1.82,0.543 2.731,2.363C3.296,3.494 4.894,3.812 5.934,3.203C7.085,2.53 7.341,1.135 6.773,0L4.043,-5.462C3.478,-6.593 1.88,-6.911 0.84,-6.302C-0.312,-5.629 -0.567,-4.234 0,-3.099" style="fill:rgb(253,235,237);fill-rule:nonzero;"/>
        </g>
        <g transform="matrix(1,0,0,1,237.144,67.3064)">
            <path d="M0,-5.462C-0.134,-3.642 -0.268,-1.821 -0.4,-0.001C-0.493,1.262 0.741,2.341 1.94,2.341C3.284,2.341 4.188,1.266 4.281,-0.001C4.415,-1.821 4.549,-3.642 4.682,-5.462C4.774,-6.724 3.54,-7.803 2.341,-7.803C0.997,-7.803 0.093,-6.728 0,-5.462" style="fill:rgb(253,235,237);fill-rule:nonzero;"/>
        </g>
        <g transform="matrix(0.84199,0.539494,-0.539494,0.84199,257.272,70.852)">
            <path d="M0,1.361C0.65,2.011 1.301,2.661 1.951,3.312C2.818,4.179 4.406,4.243 5.262,3.312C6.119,2.377 6.187,0.926 5.262,0.001C4.611,-0.649 3.961,-1.3 3.311,-1.95C2.444,-2.817 0.855,-2.882 0,-1.95C-0.857,-1.015 -0.925,0.436 0,1.361" style="fill:rgb(253,235,237);fill-rule:nonzero;"/>
        </g>
    </g>
    <g transform="matrix(6.97715,0,0,6.97715,-465.877,142.633)">
        <g transform="matrix(1,0,0,1,351.554,136.928)">
            <path d="M0,-2.271C0.686,-0.726 1.372,0.818 2.059,2.363C2.571,3.519 4.256,3.791 5.262,3.203C6.452,2.507 6.616,1.16 6.102,0C5.415,-1.545 4.729,-3.089 4.042,-4.634C3.529,-5.79 1.845,-6.062 0.84,-5.474C-0.352,-4.777 -0.516,-3.431 0,-2.271" style="fill:rgb(246,149,152);fill-rule:nonzero;"/>
        </g>
        <g transform="matrix(1,0,0,1,359.963,132.588)">
            <path d="M0,-3.489C0.91,-1.538 1.82,0.412 2.731,2.363C3.266,3.509 4.915,3.799 5.934,3.203C7.108,2.516 7.311,1.15 6.774,0C5.863,-1.951 4.953,-3.902 4.043,-5.852C3.508,-6.998 1.859,-7.288 0.84,-6.692C-0.335,-6.005 -0.537,-4.639 0,-3.489" style="fill:rgb(246,149,152);fill-rule:nonzero;"/>
        </g>
        <g transform="matrix(1,0,0,1,369.448,123.817)">
            <path d="M0,-5.019C0.762,-2.932 1.522,-0.844 2.283,1.244C2.717,2.432 3.874,3.234 5.163,2.879C6.309,2.564 7.233,1.193 6.799,0C6.037,-2.088 5.276,-4.176 4.516,-6.264C4.082,-7.451 2.925,-8.253 1.636,-7.899C0.49,-7.584 -0.435,-6.213 0,-5.019" style="fill:rgb(246,149,152);fill-rule:nonzero;"/>
        </g>
        <g transform="matrix(1,0,0,1,377.14,109.193)">
            <path d="M0,1.693C1.038,2.476 2.076,3.26 3.114,4.044C4.096,4.784 5.773,4.232 6.317,3.204C6.968,1.971 6.524,0.792 5.478,0.001C4.439,-0.783 3.401,-1.566 2.363,-2.35C1.382,-3.091 -0.297,-2.538 -0.84,-1.51C-1.491,-0.278 -1.047,0.902 0,1.693" style="fill:rgb(246,149,152);fill-rule:nonzero;"/>
        </g>
        <g transform="matrix(1,0,0,1,361.109,148.501)">
            <path d="M0,-0.591C1.431,0.709 2.861,2.01 4.292,3.31C5.227,4.16 6.679,4.235 7.603,3.31C8.466,2.448 8.542,0.853 7.603,0C6.172,-1.301 4.741,-2.601 3.311,-3.902C2.375,-4.752 0.924,-4.826 0,-3.902C-0.863,-3.039 -0.939,-1.445 0,-0.591" style="fill:rgb(246,149,152);fill-rule:nonzero;"/>
        </g>
        <g transform="matrix(1,0,0,1,372.033,141.089)">
            <path d="M0,0.969L1.951,3.31C2.738,4.255 4.46,4.184 5.262,3.31C6.184,2.306 6.102,1.007 5.262,-0.001C4.611,-0.781 3.962,-1.561 3.312,-2.342C2.524,-3.286 0.803,-3.216 0,-2.342C-0.922,-1.337 -0.839,-0.038 0,0.969" style="fill:rgb(246,149,152);fill-rule:nonzero;"/>
        </g>
        <g transform="matrix(1,0,0,1,380.641,133.267)">
            <path d="M0,-0.657C0.857,1.022 2.281,2.446 3.961,3.304C5.05,3.861 6.551,3.625 7.164,2.464C7.729,1.395 7.488,-0.144 6.324,-0.739C6.032,-0.888 5.756,-1.054 5.482,-1.233C4.972,-1.565 5.786,-0.931 5.339,-1.344C5.219,-1.455 5.098,-1.563 4.981,-1.678C4.866,-1.794 4.76,-1.915 4.648,-2.035C4.354,-2.351 4.73,-1.874 4.593,-2.099C4.403,-2.407 4.208,-2.697 4.042,-3.02C3.484,-4.113 1.86,-4.518 0.84,-3.86C-0.275,-3.141 -0.598,-1.825 0,-0.657" style="fill:rgb(246,149,152);fill-rule:nonzero;"/>
        </g>
        <g transform="matrix(1,0,0,1,387.575,117.335)">
            <path d="M0,1.379C0.656,2.023 1.313,2.667 1.97,3.311C2.845,4.17 4.419,4.249 5.28,3.311C6.132,2.384 6.214,0.917 5.28,0.001L3.312,-1.932C2.436,-2.79 0.861,-2.87 0,-1.932C-0.851,-1.004 -0.934,0.463 0,1.379" style="fill:rgb(246,149,152);fill-rule:nonzero;"/>
        </g>
        <g transform="matrix(1,0,0,1,394.888,105.066)">
            <path d="M0,3.341L3.51,4.516C4.672,4.904 6.119,4.067 6.39,2.881C6.684,1.587 5.999,0.417 4.754,0.001L1.244,-1.174C0.082,-1.563 -1.365,-0.725 -1.636,0.461C-1.93,1.755 -1.245,2.924 0,3.341" style="fill:rgb(246,149,152);fill-rule:nonzero;"/>
        </g>
        <g transform="matrix(0.587198,0.809443,-0.809443,0.587198,353.733,152.941)">
            <path d="M0,3.341L3.51,4.516C4.672,4.904 6.119,4.067 6.39,2.881C6.684,1.587 5.999,0.417 4.754,0.001L1.244,-1.174C0.082,-1.563 -1.365,-0.725 -1.636,0.461C-1.93,1.755 -1.245,2.924 0,3.341" style="fill:rgb(246,149,152);fill-rule:nonzero;"/>
        </g>
        <g transform="matrix(1,0,0,1,341.599,159.619)">
            <path d="M0,-2.656C0.261,-1.356 0.521,-0.055 0.78,1.245C1.028,2.486 2.504,3.198 3.66,2.881C4.953,2.526 5.544,1.245 5.296,0.001C5.035,-1.3 4.775,-2.6 4.516,-3.901C4.268,-5.141 2.792,-5.854 1.636,-5.536C0.343,-5.181 -0.248,-3.9 0,-2.656" style="fill:rgb(246,149,152);fill-rule:nonzero;"/>
        </g>
        <g transform="matrix(-0.323129,0.946355,0.946355,0.323129,335.118,154.067)">
            <path d="M3.39,-4.741C4.572,-3.374 5.752,-2.006 6.933,-0.639C8.902,1.641 5.366,4.712 3.39,2.424C2.21,1.056 1.028,-0.311 -0.152,-1.678C-2.12,-3.958 1.415,-7.028 3.39,-4.741" style="fill:rgb(246,149,152);fill-rule:nonzero;"/>
        </g>
        <g transform="matrix(1,0,0,1,344.113,144.306)">
            <path d="M0,-3.83L1.945,1.244C2.397,2.424 3.521,3.238 4.825,2.879C5.954,2.569 6.915,1.187 6.46,0C5.812,-1.692 5.163,-3.383 4.516,-5.075C4.063,-6.254 2.939,-7.068 1.636,-6.71C0.507,-6.399 -0.454,-5.017 0,-3.83" style="fill:rgb(246,149,152);fill-rule:nonzero;"/>
        </g>
        <g transform="matrix(1,0,0,1,335,146.758)">
            <path d="M0,0.022C0.521,0.802 1.04,1.583 1.561,2.363C2.239,3.38 3.657,3.916 4.764,3.203C5.778,2.549 6.33,1.09 5.604,0C5.083,-0.78 4.563,-1.561 4.043,-2.341C3.364,-3.358 1.946,-3.894 0.84,-3.181C-0.175,-2.527 -0.727,-1.068 0,0.022" style="fill:rgb(246,149,152);fill-rule:nonzero;"/>
        </g>
    </g>
</svg>
